<?xml version="1.0" encoding="UTF-8" standalone="no"?>
<!-- Created with Inkscape (http://www.inkscape.org/) -->

<svg
   width="190.47418mm"
   height="114.22714mm"
   viewBox="0 0 190.47419 114.22715"
   version="1.1"
   id="svg1872"
   xmlns="http://www.w3.org/2000/svg"
   xmlns:svg="http://www.w3.org/2000/svg">
  <defs
     id="defs1869" />
  <g
     id="layer1"
     transform="translate(-111.01657,-68.487528)">
    <ellipse
       style="fill:#f9f9f9;fill-opacity:1;stroke-width:0.308621"
       id="path14654"
       cx="114.92027"
       cy="116.75432"
       rx="1.404099"
       ry="2.6486824"
       transform="matrix(0.95804591,-0.28661478,0.20804851,0.97811851,0,0)" />
    <path
       id="path2771"
       style="fill:#000000;fill-opacity:1;stroke-width:0.264583"
       d="M 57.810292,108.03052 100.41958,107.87143 57.810292,34.702742 Z"
       transform="matrix(1,0,0,0.26311875,53.225806,67.010899)" />
    <rect
       style="fill:#000000;fill-opacity:1;stroke-width:0.743217"
       id="rect4279-8"
       width="23.459978"
       height="9.4967098"
       x="174.53494"
       y="95.855507" />
    <rect
       style="fill:#000000;fill-opacity:1;stroke-width:0.264583"
       id="rect4281"
       width="0.75272661"
       height="15.054531"
       x="122.09436"
       y="70.50972"
       transform="rotate(0.20362622)" />
    <rect
       style="fill:#000000;fill-opacity:1;stroke-width:0.1665"
       id="rect4281-1"
       width="0.54858983"
       height="8.1801825"
       x="92.259621"
       y="-122.56776"
       transform="matrix(0.10134784,0.99485105,-0.98282209,0.18455553,0,0)" />
    <rect
       style="fill:#000000;fill-opacity:1;stroke-width:0.081645"
       id="rect4281-1-7"
       width="0.40083176"
       height="2.6920276"
       x="-156.3365"
       y="12.50293"
       transform="matrix(-0.85097261,-0.52521006,-0.53985444,-0.84175839,0,0)" />
    <rect
       style="fill:#000000;fill-opacity:1;stroke-width:0.081645"
       id="rect4281-1-7-5"
       width="0.40083176"
       height="2.6920276"
       x="-159.60172"
       y="14.856405"
       transform="matrix(-0.85097261,-0.52521006,-0.53985444,-0.84175839,0,0)" />
    <rect
       style="fill:#000000;fill-opacity:1;stroke-width:0.081645"
       id="rect4281-1-7-5-9"
       width="0.40083176"
       height="2.6920276"
       x="-162.80502"
       y="17.276632"
       transform="matrix(-0.85097261,-0.52521006,-0.53985444,-0.84175839,0,0)" />
    <g
       id="g1706"
       transform="matrix(-1.0766335,0,0,1.0716359,462.11953,16.436512)">
      <rect
         style="fill:#000000;fill-opacity:1;stroke-width:0.264583"
         id="rect4281-9"
         width="0.75272661"
         height="15.054531"
         x="201.11716"
         y="73.516136"
         transform="rotate(0.20362622)" />
      <rect
         style="fill:#000000;fill-opacity:1;stroke-width:0.1665"
         id="rect4281-1-6"
         width="0.54858983"
         height="8.1801825"
         x="110.1356"
         y="-201.11699"
         transform="matrix(0.10134784,0.99485105,-0.98282209,0.18455553,0,0)" />
      <rect
         style="fill:#000000;fill-opacity:1;stroke-width:0.081645"
         id="rect4281-1-7-8"
         width="0.40083176"
         height="2.6920276"
         x="-305.91507"
         y="101.92636"
         transform="matrix(-0.85097261,-0.52521006,-0.53985444,-0.84175839,0,0)" />
      <rect
         style="fill:#000000;fill-opacity:1;stroke-width:0.081645"
         id="rect4281-1-7-5-3"
         width="0.40083176"
         height="2.6920276"
         x="-309.18027"
         y="104.27984"
         transform="matrix(-0.85097261,-0.52521006,-0.53985444,-0.84175839,0,0)" />
      <rect
         style="fill:#000000;fill-opacity:1;stroke-width:0.081645"
         id="rect4281-1-7-5-9-7"
         width="0.40083176"
         height="2.6920276"
         x="-312.38358"
         y="106.70007"
         transform="matrix(-0.85097261,-0.52521006,-0.53985444,-0.84175839,0,0)" />
    </g>
    <ellipse
       style="fill:#000000;fill-opacity:1;stroke-width:0.264583"
       id="path14212"
       cx="133.26045"
       cy="82.601151"
       rx="2.5718157"
       ry="4.3281779" />
    <ellipse
       style="fill:#f9f9f9;fill-opacity:1;stroke-width:0.257537"
       id="path14214"
       cx="134.323"
       cy="76.347122"
       rx="2.1327252"
       ry="2.198931" />
    <ellipse
       style="fill:#000000;fill-opacity:1;stroke-width:0.254018"
       id="path14214-9"
       cx="134.2036"
       cy="76.315445"
       rx="2.0760319"
       ry="2.1976814" />
    <ellipse
       style="fill:#000000;fill-opacity:1;stroke-width:0.236564"
       id="path14216"
       cx="159.39972"
       cy="17.569321"
       rx="0.92564434"
       ry="3.1195054"
       transform="matrix(0.89783292,0.44033629,-0.29219394,0.95635909,0,0)" />
    <ellipse
       style="fill:#000000;fill-opacity:1;stroke-width:0.236564"
       id="path14216-0"
       cx="156.46974"
       cy="18.065702"
       rx="0.92564434"
       ry="3.1195054"
       transform="matrix(0.89783292,0.44033629,-0.29219394,0.95635909,0,0)" />
    <ellipse
       style="fill:#000000;fill-opacity:1;stroke-width:0.264583"
       id="path14216-4"
       cx="-138.90268"
       cy="80.871498"
       rx="1.1290898"
       ry="3.1990879"
       transform="rotate(-117.62018)" />
    <ellipse
       style="fill:#000000;fill-opacity:1;stroke-width:0.16052"
       id="path14408"
       cx="132.9099"
       cy="73.163948"
       rx="1.3626584"
       ry="0.46830666"
       transform="matrix(0.99698311,0.07761876,0.0514916,0.99867343,0,0)" />
    <ellipse
       style="fill:#000000;fill-opacity:1;stroke-width:0.228737"
       id="path14408-9"
       cx="81.697556"
       cy="160.4505"
       rx="1.2777518"
       ry="1.0141139"
       transform="matrix(0.66499296,-0.74684963,0.49375959,0.86959845,0,0)" />
    <rect
       style="fill:#000000;fill-opacity:1;stroke-width:0.191491"
       id="rect14630"
       width="0.34499967"
       height="4.5163593"
       x="162.95219"
       y="-6.3595161"
       transform="rotate(31.707735)" />
    <rect
       style="fill:#000000;fill-opacity:1;stroke-width:0.238028"
       id="rect14630-0"
       width="0.53299278"
       height="4.5169487"
       x="-81.29422"
       y="136.1375"
       transform="matrix(0.00888065,-0.99996057,0.99977538,0.02119421,0,0)" />
    <rect
       style="fill:#000000;fill-opacity:1;stroke-width:0.229206"
       id="rect859"
       width="84.836617"
       height="33.064121"
       x="93.4702"
       y="-144.12076"
       transform="matrix(-2.0816632e-4,0.99999998,-0.99999955,-9.4952044e-4,0,0)" />
    <rect
       style="fill:#000000;fill-opacity:1;stroke-width:0.361655"
       id="rect859-5"
       width="78.756187"
       height="88.673447"
       x="103.87581"
       y="-251.63872"
       transform="matrix(-6.0137576e-4,0.99999982,-0.99999995,-3.2867674e-4,0,0)" />
    <path
       style="fill:none;fill-opacity:1;stroke:#000000;stroke-width:0.499999;stroke-dasharray:none;stroke-opacity:1"
       d="m 142.85771,132.9711 c 3.76387,4.34936 7.52751,8.69846 11.29105,8.82374 3.76354,0.12528 7.5271,-3.97282 11.29074,-8.07101"
       id="path1808" />
    <path
       style="fill:none;fill-opacity:1;stroke:#000000;stroke-width:0.2;stroke-dasharray:none;stroke-opacity:1"
       d="m 250.41886,125.23612 c 1.17123,0.5647 2.34211,1.12923 3.37695,0.56465 1.03483,-0.56459 1.9339,-2.25819 2.83304,-3.95191"
       id="path1808-1" />
    <path
       style="fill:none;fill-opacity:1;stroke:#000000;stroke-width:0.2;stroke-dasharray:none;stroke-opacity:1"
       d="m 251.19652,127.27647 c 1.17123,0.5647 2.34211,1.12923 3.41877,0.64827 1.07666,-0.48096 2.05936,-2.00729 3.04213,-3.53371"
       id="path1808-1-3" />
    <path
       style="fill:none;fill-opacity:1;stroke:#000000;stroke-width:0.2;stroke-dasharray:none;stroke-opacity:1"
       d="m 260.79591,122.24616 c 1.02479,1.25484 2.04931,2.50935 3.70118,4.05663 1.65188,1.54727 3.93092,3.38724 6.20972,5.22701"
       id="path1808-1-3-0" />
    <path
       style="fill:none;fill-opacity:1;stroke:#000000;stroke-width:0.2;stroke-dasharray:none;stroke-opacity:1"
       d="m 250.75744,122.63465 c 1.52659,2.02849 3.05292,4.05661 5.27969,3.97281 2.22677,-0.0838 5.15398,-2.2792 8.0812,-4.47462"
       id="path1808-1-3-4" />
    <rect
       style="fill:#000000;fill-opacity:1;stroke:none;stroke-width:0.334709;stroke-dasharray:none;stroke-opacity:1"
       id="rect2073"
       width="55.489414"
       height="30.870966"
       x="111.01657"
       y="151.79129" />
    <rect
       style="fill:#000000;fill-opacity:1;stroke:none;stroke-width:0.497768;stroke-dasharray:none;stroke-opacity:1"
       id="rect2803"
       width="58.193542"
       height="48.883488"
       x="243.29721"
       y="133.77785" />
    <path
       style="fill:#000000;fill-opacity:1;stroke:none;stroke-width:0.499999;stroke-dasharray:none;stroke-opacity:1"
       id="path2809"
       d="m -253.47218,-131.43002 -152.6825,5.00168 72.00966,-134.72777 z"
       transform="matrix(0.3319802,0,0,0.05915115,385.6385,141.51507)" />
    <rect
       style="fill:#000000;fill-opacity:1;stroke:none;stroke-width:0.499999;stroke-dasharray:none;stroke-opacity:1"
       id="rect3537"
       width="1.4193548"
       height="16.67742"
       x="260.15204"
       y="119.5843" />
    <rect
       style="fill:#000000;fill-opacity:1;stroke:none;stroke-width:0.31062;stroke-dasharray:none;stroke-opacity:1"
       id="rect3539"
       width="8.5447226"
       height="0.72935545"
       x="256.32416"
       y="121.8351" />
    <rect
       style="fill:#000000;fill-opacity:1;stroke:none;stroke-width:0.373516;stroke-dasharray:none;stroke-opacity:1"
       id="rect3541"
       width="6.5645156"
       height="0.79208267"
       x="257.31332"
       y="124.11817" />
  </g>
</svg>
