<?xml version="1.0" encoding="UTF-8" standalone="no"?>
<!-- Created with Inkscape (http://www.inkscape.org/) -->

<svg
   width="559.03436mm"
   height="148.53804mm"
   viewBox="0 0 559.03436 148.53804"
   version="1.1"
   id="svg5"
   inkscape:version="1.2 (dc2aedaf03, 2022-05-15)"
   sodipodi:docname="city.svg"
   xmlns:inkscape="http://www.inkscape.org/namespaces/inkscape"
   xmlns:sodipodi="http://sodipodi.sourceforge.net/DTD/sodipodi-0.dtd"
   xmlns="http://www.w3.org/2000/svg"
   xmlns:svg="http://www.w3.org/2000/svg">
  <sodipodi:namedview
     id="namedview7"
     pagecolor="#ffffff"
     bordercolor="#000000"
     borderopacity="0.25"
     inkscape:showpageshadow="2"
     inkscape:pageopacity="0.0"
     inkscape:pagecheckerboard="0"
     inkscape:deskcolor="#d1d1d1"
     inkscape:document-units="mm"
     showgrid="false"
     inkscape:zoom="0.52724989"
     inkscape:cx="1280.2279"
     inkscape:cy="106.2115"
     inkscape:window-width="1920"
     inkscape:window-height="1017"
     inkscape:window-x="-8"
     inkscape:window-y="-8"
     inkscape:window-maximized="1"
     inkscape:current-layer="layer1" />
  <defs
     id="defs2" />
  <g
     inkscape:label="Capa 1"
     inkscape:groupmode="layer"
     id="layer1"
     transform="translate(383.28406,-206.12162)">
    <path
       id="path1089"
       style="fill:#000000;stroke-width:0.246576"
       d="M 91.650462,243.38136 A 118.98323,41.149052 0 0 0 7.5789051,255.44419 H 175.7503 A 118.98323,41.149052 0 0 0 91.650462,243.38136 Z" />
    <path
       id="path865"
       style="fill:#000000;stroke-width:0.264583"
       d="m 50.18195,212.2687 v 37.13468 H 61.723364 V 212.2687 Z m 3.242696,3.76359 h 5.5578 c 0.02031,0 0.04041,5.4e-4 0.06046,0.002 0.02005,0.001 0.04018,0.003 0.05994,0.005 0.01976,0.002 0.03894,0.005 0.0584,0.008 0.01946,0.003 0.03875,0.006 0.05788,0.01 0.01913,0.004 0.03808,0.009 0.05684,0.0134 0.01877,0.005 0.03742,0.01 0.05581,0.0155 0.01839,0.006 0.03679,0.012 0.05478,0.0186 0.01798,0.007 0.03567,0.0133 0.05323,0.0207 0.01755,0.007 0.03509,0.0155 0.05219,0.0238 0.0171,0.008 0.03402,0.0168 0.05064,0.0258 0.01662,0.009 0.03297,0.0181 0.04909,0.0279 0.01612,0.01 0.03195,0.02 0.04754,0.0305 0.0156,0.0105 0.03095,0.0213 0.04599,0.0326 0.01505,0.0112 0.02945,0.0232 0.04393,0.0351 0.01447,0.0119 0.02902,0.0241 0.04289,0.0367 0.01387,0.0126 0.02706,0.0255 0.04031,0.0387 0.01325,0.0132 0.02615,0.0269 0.03876,0.0408 0.01261,0.0139 0.02527,0.0279 0.03721,0.0424 0.01193,0.0145 0.02338,0.0294 0.03462,0.0444 0.01124,0.0151 0.02204,0.0304 0.03256,0.046 0.01052,0.0156 0.02071,0.0314 0.03049,0.0475 0.0098,0.0161 0.01941,0.0325 0.02842,0.0491 0.009,0.0166 0.01762,0.0335 0.02584,0.0506 0.0082,0.0171 0.01585,0.0341 0.02325,0.0517 0.0074,0.0175 0.01463,0.0352 0.02119,0.0532 0.0066,0.018 0.01239,0.0364 0.01809,0.0548 0.0057,0.0184 0.01121,0.037 0.01602,0.0558 0.0048,0.0188 0.009,0.0377 0.01292,0.0568 0.0039,0.0191 0.0074,0.0384 0.01034,0.0579 0.003,0.0195 0.0052,0.0391 0.0072,0.0589 0.002,0.0198 0.0036,0.0394 0.0047,0.0594 10e-4,0.02 0.0016,0.0401 0.0016,0.0605 v 2.48408 c 0,0.0203 -5.4e-4,0.0404 -0.0016,0.0605 -10e-4,0.02 -0.0027,0.0402 -0.0047,0.06 -0.002,0.0198 -0.0043,0.0394 -0.0072,0.0589 -0.003,0.0195 -0.0064,0.0387 -0.01034,0.0579 -0.0039,0.0191 -0.0081,0.0381 -0.01292,0.0568 -0.0048,0.0188 -0.01032,0.0374 -0.01602,0.0558 -0.0057,0.0184 -0.01153,0.0363 -0.01809,0.0543 -0.0066,0.018 -0.01379,0.0357 -0.02119,0.0532 -0.0074,0.0175 -0.01504,0.0351 -0.02325,0.0522 -0.0082,0.0171 -0.01683,0.034 -0.02584,0.0506 -0.009,0.0166 -0.01865,0.033 -0.02842,0.0491 -0.0098,0.0161 -0.01997,0.0319 -0.03049,0.0475 -0.01052,0.0156 -0.02132,0.031 -0.03256,0.046 -0.01124,0.015 -0.02269,0.03 -0.03462,0.0444 -0.01193,0.0145 -0.0246,0.0285 -0.03721,0.0424 -0.0126,0.0139 -0.02551,0.0276 -0.03876,0.0408 -0.01325,0.0132 -0.02643,0.0262 -0.04031,0.0388 -0.01387,0.0126 -0.02842,0.0248 -0.04289,0.0367 -0.01447,0.0119 -0.02888,0.0234 -0.04393,0.0346 -0.01505,0.0112 -0.0304,0.022 -0.04599,0.0326 -0.0156,0.0105 -0.03142,0.0207 -0.04754,0.0305 -0.01612,0.01 -0.03247,0.0194 -0.04909,0.0284 -0.01662,0.009 -0.03354,0.0176 -0.05064,0.0258 -0.0171,0.008 -0.03464,0.0159 -0.05219,0.0232 -0.01755,0.007 -0.03524,0.0146 -0.05323,0.0212 -0.01798,0.007 -0.03639,0.0124 -0.05478,0.0181 -0.01839,0.006 -0.03704,0.0112 -0.05581,0.016 -0.01877,0.005 -0.03772,0.009 -0.05684,0.0129 -0.01912,0.004 -0.03842,0.007 -0.05788,0.0103 -0.01946,0.003 -0.03863,0.005 -0.0584,0.007 -0.01976,0.002 -0.0399,0.004 -0.05994,0.005 -0.02005,10e-4 -0.04015,0.002 -0.06046,0.002 h -5.5578 c -0.02031,0 -0.04041,-5.4e-4 -0.06046,-0.002 -0.02005,-0.001 -0.03966,-0.003 -0.05943,-0.005 -0.01976,-0.002 -0.03946,-0.004 -0.05891,-0.007 -0.01946,-0.003 -0.03875,-0.006 -0.05788,-0.0103 -0.01912,-0.004 -0.03808,-0.008 -0.05684,-0.0129 -0.01877,-0.005 -0.03742,-0.0103 -0.05581,-0.016 -0.01839,-0.006 -0.03679,-0.0115 -0.05478,-0.0181 -0.01798,-0.007 -0.03567,-0.0138 -0.05323,-0.0212 -0.01755,-0.007 -0.03509,-0.015 -0.05219,-0.0232 -0.0171,-0.008 -0.0335,-0.0168 -0.05013,-0.0258 -0.01662,-0.009 -0.03349,-0.0186 -0.04961,-0.0284 -0.01612,-0.01 -0.03195,-0.02 -0.04754,-0.0305 -0.0156,-0.0105 -0.03095,-0.0213 -0.04599,-0.0326 -0.01505,-0.0112 -0.02945,-0.0227 -0.04392,-0.0346 -0.01447,-0.0119 -0.02902,-0.0241 -0.04289,-0.0367 -0.01387,-0.0126 -0.02706,-0.0255 -0.04031,-0.0388 -0.01325,-0.0132 -0.02615,-0.0269 -0.03876,-0.0408 -0.0126,-0.0139 -0.02527,-0.0279 -0.03721,-0.0424 -0.01193,-0.0145 -0.02338,-0.0294 -0.03462,-0.0444 -0.01124,-0.015 -0.02204,-0.0304 -0.03256,-0.046 -0.01052,-0.0156 -0.02071,-0.0314 -0.03049,-0.0475 -0.0098,-0.0161 -0.0189,-0.0325 -0.02791,-0.0491 -0.009,-0.0166 -0.01762,-0.0335 -0.02584,-0.0506 -0.0082,-0.0171 -0.01637,-0.0346 -0.02377,-0.0522 -0.0074,-0.0175 -0.01411,-0.0352 -0.02067,-0.0532 -0.0066,-0.018 -0.01291,-0.0359 -0.0186,-0.0543 -0.0057,-0.0184 -0.0107,-0.037 -0.0155,-0.0558 -0.0048,-0.0188 -0.0095,-0.0377 -0.01344,-0.0568 -0.0039,-0.0191 -0.0074,-0.0384 -0.01033,-0.0579 -0.003,-0.0195 -0.0052,-0.0392 -0.0072,-0.0589 -0.002,-0.0198 -0.0036,-0.0399 -0.0047,-0.06 -0.001,-0.02 -0.0016,-0.0401 -0.0016,-0.0605 v -2.48408 c 0,-0.0203 5.41e-4,-0.0404 0.0016,-0.0605 10e-4,-0.02 0.0027,-0.0397 0.0047,-0.0594 0.002,-0.0198 0.0043,-0.0395 0.0072,-0.0589 0.003,-0.0195 0.0064,-0.0388 0.01033,-0.0579 0.0039,-0.0191 0.0086,-0.0381 0.01344,-0.0568 0.0048,-0.0188 0.0098,-0.0374 0.0155,-0.0558 0.0057,-0.0184 0.01204,-0.0368 0.0186,-0.0548 0.0066,-0.018 0.01327,-0.0357 0.02067,-0.0532 0.0074,-0.0175 0.01555,-0.0346 0.02377,-0.0517 0.0082,-0.0171 0.01683,-0.034 0.02584,-0.0506 0.009,-0.0166 0.01813,-0.033 0.02791,-0.0491 0.0098,-0.0161 0.01997,-0.0319 0.03049,-0.0475 0.01052,-0.0156 0.02132,-0.0309 0.03256,-0.046 0.01124,-0.015 0.02269,-0.03 0.03462,-0.0444 0.01193,-0.0145 0.0246,-0.0285 0.03721,-0.0424 0.01261,-0.0139 0.02551,-0.0276 0.03876,-0.0408 0.01325,-0.0132 0.02643,-0.0262 0.04031,-0.0387 0.01387,-0.0126 0.02842,-0.0248 0.04289,-0.0367 0.01447,-0.0119 0.02888,-0.0239 0.04392,-0.0351 0.01505,-0.0112 0.0304,-0.022 0.04599,-0.0326 0.0156,-0.0105 0.03142,-0.0207 0.04754,-0.0305 0.01612,-0.01 0.03299,-0.0189 0.04961,-0.0279 0.01662,-0.009 0.03303,-0.0176 0.05013,-0.0258 0.0171,-0.008 0.03464,-0.0164 0.05219,-0.0238 0.01755,-0.007 0.03524,-0.0141 0.05323,-0.0207 0.01798,-0.007 0.03639,-0.0129 0.05478,-0.0186 0.01839,-0.006 0.03704,-0.0107 0.05581,-0.0155 0.01877,-0.005 0.03772,-0.01 0.05684,-0.0134 0.01912,-0.004 0.03842,-0.007 0.05788,-0.01 0.01946,-0.003 0.03915,-0.006 0.05891,-0.008 0.01976,-0.002 0.03938,-0.004 0.05943,-0.005 0.02005,-0.001 0.04015,-0.002 0.06046,-0.002 z" />
    <rect
       style="fill:#000000;stroke-width:0.264583"
       id="rect716"
       width="10.538172"
       height="28.603609"
       x="68.874481"
       y="217.53799" />
    <path
       id="rect718"
       style="stroke-width:0.264583"
       d="m 68.999938,206.12162 7.65272,2.13273 2.73782,9.34189 -10.522952,0.37702 z"
       sodipodi:nodetypes="ccccc" />
    <rect
       style="fill:#000000;stroke-width:0.264583"
       id="rect720"
       width="3.5127239"
       height="18.567255"
       x="103.87627"
       y="226.31979" />
    <rect
       style="fill:#000000;stroke-width:0.175362"
       id="rect722"
       width="10.287262"
       height="6.3981757"
       x="100.23809"
       y="225.69252" />
    <rect
       style="fill:#000000;stroke-width:0.167365"
       id="rect724"
       width="7.1509023"
       height="3.8890877"
       x="101.99445"
       y="223.18343" />
    <rect
       style="fill:#000000;stroke-width:0.153249"
       id="rect726"
       width="1.6309075"
       height="8.0290833"
       x="105.00535"
       y="215.90706" />
    <path
       id="rect728"
       style="stroke-width:0.271272"
       d="m 130.20909,221.83387 12.28192,-0.29395 -7.00023,29.87075 H 121.9417 Z"
       sodipodi:nodetypes="ccccc" />
    <path
       id="rect728-4"
       style="stroke-width:0.275171"
       d="m 160.94084,222.18103 -12.63751,-0.29396 7.20289,29.87076 h 13.94135 z"
       sodipodi:nodetypes="ccccc" />
    <rect
       style="fill:#000000;stroke-width:0.264583"
       id="rect868"
       width="8.0290833"
       height="25.341795"
       x="64.734482"
       y="225.06525"
       ry="1.1729985" />
    <rect
       style="fill:#ffffff;stroke-width:0.0582005"
       id="rect874"
       width="0.7527262"
       height="17.814529"
       x="71.320839"
       y="219.16888"
       ry="0" />
    <rect
       style="fill:#ffffff;stroke-width:0.0389648"
       id="rect874-2"
       width="0.72237086"
       height="8.3203697"
       x="-229.46985"
       y="92.248917"
       ry="0"
       transform="matrix(0.17521213,-0.98453071,0.99999815,-0.00192556,0,0)" />
    <rect
       style="fill:#ffffff;stroke-width:0.0389648"
       id="rect874-2-7"
       width="0.72237086"
       height="8.3203697"
       x="-237.94542"
       y="95.620918"
       ry="0"
       transform="matrix(0.18393713,-0.98293801,0.99997589,0.00694359,0,0)" />
    <rect
       style="fill:#ffffff;stroke-width:0.0270428"
       id="rect874-2-7-9"
       width="0.71299994"
       height="4.0604358"
       x="111.01102"
       y="216.50526"
       ry="0"
       transform="matrix(0.99585672,0.09093617,-0.01422833,0.99989877,0,0)" />
    <rect
       style="fill:#ffffff;stroke-width:0.040157"
       id="rect874-2-7-9-5"
       width="0.36958995"
       height="17.272657"
       x="196.46889"
       y="77.436829"
       ry="0"
       transform="matrix(0.66556588,0.7463391,-0.00115876,0.99999933,0,0)" />
    <rect
       style="fill:#ffffff;stroke-width:0.0294813"
       id="rect874-2-7-9-5-3"
       width="0.30492753"
       height="11.283765"
       x="-282.75934"
       y="295.94769"
       ry="0"
       transform="matrix(0.59095473,-0.80670472,0.99999843,0.00177378,0,0)" />
    <rect
       style="fill:#ffffff;stroke-width:0.0294813"
       id="rect874-2-7-9-5-3-9"
       width="0.30492753"
       height="11.283765"
       x="-293.01486"
       y="299.78143"
       ry="0"
       transform="matrix(0.59095473,-0.80670472,0.99999843,0.00177378,0,0)" />
    <path
       id="path993"
       style="fill:#000000;stroke-width:0.254447"
       d="M 89.964275,243.02479 A 239.4016,54.822582 0 0 0 -149.437,297.84729 239.4016,54.822582 0 0 0 89.964275,352.66978 239.4016,54.822582 0 0 0 175.68799,349.02866 V 246.66126 A 239.4016,54.822582 0 0 0 89.964275,243.02479 Z" />
    <path
       id="path7431"
       style="fill:#000000;stroke-width:0.326022"
       d="m -220.48813,246.26697 a 247.43416,60.218124 0 0 0 -162.7958,14.8916 v 90.41102 H -56.48545 A 247.43416,60.218124 0 0 0 26.945778,306.485 247.43416,60.218124 0 0 0 -220.48813,246.26697 Z" />
    <rect
       style="fill:#000000;stroke-width:0.171445"
       id="rect6210"
       width="11.800102"
       height="15.556349"
       x="-141.16438"
       y="242.25249" />
    <rect
       style="fill:#000000;stroke-width:0.171445"
       id="rect6210-2"
       width="11.800102"
       height="15.556349"
       x="-133.69189"
       y="244.11765" />
    <rect
       style="fill:#000000;stroke-width:0.2"
       id="rect6212"
       width="11.039989"
       height="11.541807"
       x="-124.34612"
       y="242.25249" />
    <rect
       style="fill:#000000;stroke-width:0.2"
       id="rect6214"
       width="8.530901"
       height="13.549078"
       x="-94.738869"
       y="240.24522" />
    <rect
       style="fill:#000000;stroke-width:0.2"
       id="rect6216"
       width="7.5272655"
       height="7.5272655"
       x="-67.640717"
       y="246.26704" />
    <rect
       style="fill:#000000;stroke-width:0.2"
       id="rect6224"
       width="6.5236301"
       height="9.0327187"
       x="-128.84941"
       y="240.56007"
       ry="0" />
    <rect
       style="fill:#000000;stroke-width:0.2"
       id="rect6224-6"
       width="6.5236301"
       height="9.0327187"
       x="-146.66655"
       y="239.573"
       ry="0" />
    <rect
       style="fill:#000000;stroke-width:0.2"
       id="rect6224-6-8"
       width="6.5236301"
       height="9.0327187"
       x="-149.15044"
       y="241.3472"
       ry="0" />
    <rect
       style="fill:#000000;stroke-width:0.2"
       id="rect6224-6-8-9"
       width="6.5236301"
       height="9.0327187"
       x="-153.40849"
       y="243.1214"
       ry="0" />
    <rect
       style="fill:#000000;stroke-width:0.2"
       id="rect6224-5"
       width="6.5236301"
       height="9.0327187"
       x="-114.55365"
       y="241.16977"
       ry="0" />
    <rect
       style="fill:#000000;stroke-width:0.2"
       id="rect6224-5-8"
       width="6.5236301"
       height="9.0327187"
       x="-108.69881"
       y="242.58913"
       ry="0" />
    <rect
       style="fill:#000000;stroke-width:0.17691"
       id="rect6224-5-8-0"
       width="5.1042752"
       height="9.0327187"
       x="-106.7472"
       y="241.25848"
       ry="0" />
    <rect
       style="fill:#000000;stroke-width:0.197437"
       id="rect6224-5-8-0-6"
       width="5.1042752"
       height="11.250461"
       x="-102.13431"
       y="236.46815"
       ry="0" />
    <rect
       style="fill:#000000;stroke-width:0.197437"
       id="rect6224-5-8-0-6-5"
       width="5.1042752"
       height="11.250461"
       x="-98.408493"
       y="239.70605"
       ry="0" />
    <rect
       style="fill:#000000;stroke-width:0.197437"
       id="rect6224-5-8-0-6-5-6"
       width="5.1042752"
       height="11.250461"
       x="-88.206879"
       y="241.56897"
       ry="0" />
    <rect
       style="fill:#000000;stroke-width:0.197437"
       id="rect6224-5-8-0-6-5-6-9"
       width="5.1042752"
       height="11.250461"
       x="-83.061722"
       y="239.17381"
       ry="0" />
    <rect
       style="fill:#000000;stroke-width:0.197437"
       id="rect6224-5-8-0-6-5-6-9-6"
       width="5.1042752"
       height="11.250461"
       x="-78.892365"
       y="239.70607"
       ry="0" />
    <rect
       style="fill:#000000;stroke-width:0.125394"
       id="rect6224-5-8-0-6-5-6-9-7"
       width="3.1526623"
       height="7.3472347"
       x="-60.795589"
       y="244.93994"
       ry="0" />
    <rect
       style="fill:#000000;stroke-width:0.125394"
       id="rect6224-5-8-0-6-5-6-9-7-0"
       width="3.1526623"
       height="7.3472347"
       x="-58.045589"
       y="245.91574"
       ry="0" />
    <rect
       style="fill:#000000;stroke-width:0.125394"
       id="rect6224-5-8-0-6-5-6-9-7-0-9"
       width="3.1526623"
       height="7.3472347"
       x="-55.029461"
       y="245.38348"
       ry="0" />
    <rect
       style="fill:#000000;stroke-width:0.125394"
       id="rect6224-5-8-0-6-5-6-9-7-0-9-6"
       width="3.1526623"
       height="7.3472347"
       x="-53.964947"
       y="246.27058"
       ry="0" />
    <rect
       style="fill:#000000;stroke-width:0.125394"
       id="rect6224-5-8-0-6-5-6-9-7-0-9-8"
       width="3.1526623"
       height="7.3472347"
       x="-52.723011"
       y="246.80284"
       ry="0" />
    <rect
       style="fill:#000000;stroke-width:0.125394"
       id="rect6224-5-8-0-6-5-6-9-7-0-9-1"
       width="3.1526623"
       height="7.3472347"
       x="-50.23914"
       y="246.80284"
       ry="0" />
    <rect
       style="fill:#000000;stroke-width:0.125394"
       id="rect6224-5-8-0-6-5-6-9-7-0-9-4"
       width="3.1526623"
       height="7.3472347"
       x="-49.352043"
       y="246.80284"
       ry="0" />
    <rect
       style="fill:#000000;stroke-width:0.125394"
       id="rect6224-5-8-0-6-5-6-9-7-0-9-0"
       width="3.1526623"
       height="7.3472347"
       x="-46.335915"
       y="245.91574"
       ry="0" />
    <rect
       style="fill:#000000;stroke-width:0.125394"
       id="rect6224-5-8-0-6-5-6-9-7-0-9-47"
       width="3.1526623"
       height="7.3472347"
       x="-45.448814"
       y="246.80284"
       ry="0" />
    <rect
       style="fill:#000000;stroke-width:0.125394"
       id="rect6224-5-8-0-6-5-6-9-7-0-9-9"
       width="3.1526623"
       height="7.3472347"
       x="-44.029461"
       y="248.2222"
       ry="0" />
    <rect
       style="fill:#000000;stroke-width:0.125394"
       id="rect6224-5-8-0-6-5-6-9-7-0-9-92"
       width="3.1526623"
       height="7.3472347"
       x="-43.142365"
       y="249.99638"
       ry="0" />
    <rect
       style="fill:#000000;stroke-width:0.125394"
       id="rect6224-5-8-0-6-5-6-9-7-0-9-61"
       width="3.1526623"
       height="7.3472347"
       x="-41.545589"
       y="249.99638"
       ry="0" />
    <rect
       style="fill:#000000;stroke-width:0.125394"
       id="rect6224-5-8-0-6-5-6-9-7-0-9-81"
       width="3.1526623"
       height="7.3472347"
       x="-40.835915"
       y="249.99638"
       ry="0" />
    <rect
       style="fill:#000000;stroke-width:0.125394"
       id="rect6224-5-8-0-6-5-6-9-7-0-9-5"
       width="3.1526623"
       height="7.3472347"
       x="-39.948818"
       y="249.10928"
       ry="0" />
    <rect
       style="fill:#000000;stroke-width:0.125394"
       id="rect6224-5-8-0-6-5-6-9-7-0-9-93"
       width="3.1526623"
       height="7.3472347"
       x="-39.593975"
       y="248.39961"
       ry="0" />
    <rect
       style="fill:#000000;stroke-width:0.125394"
       id="rect6224-5-8-0-6-5-6-9-7-0-9-7"
       width="3.1526623"
       height="7.3472347"
       x="-36.932686"
       y="249.28671"
       ry="0" />
    <rect
       style="fill:#000000;stroke-width:0.125394"
       id="rect6224-5-8-0-6-5-6-9-7-0-9-69"
       width="3.1526623"
       height="7.3472347"
       x="-35.868172"
       y="249.46413"
       ry="0" />
    <rect
       style="fill:#000000;stroke-width:0.125394"
       id="rect6224-5-8-0-6-5-6-9-7-0-9-03"
       width="3.1526623"
       height="7.3472347"
       x="-32.852043"
       y="250.1738"
       ry="0" />
    <rect
       style="fill:#000000;stroke-width:0.125394"
       id="rect6224-5-8-0-6-5-6-9-7-0-9-60"
       width="3.1526623"
       height="7.3472347"
       x="-32.319782"
       y="250.17381"
       ry="0" />
    <rect
       style="fill:#000000;stroke-width:0.125394"
       id="rect6224-5-8-0-6-5-6-9-7-0-9-06"
       width="3.1526623"
       height="7.3472347"
       x="-32.319782"
       y="250.17381"
       ry="0" />
    <rect
       style="fill:#000000;stroke-width:0.246682"
       id="rect6224-5-8-0-6-5-6-9-7-0-9-06-1"
       width="12.201049"
       height="7.3472347"
       x="-29.481075"
       y="246.80284"
       ry="0" />
    <rect
       style="fill:#000000;stroke-width:0.218606"
       id="rect6224-5-8-0-6-5-6-9-7-5"
       width="6.2575011"
       height="11.250461"
       x="-76.818993"
       y="243.49014"
       ry="0" />
    <rect
       style="fill:#000000;stroke-width:0.185038"
       id="rect6224-5-8-0-6-5-6-9-7-5-6"
       width="4.4833074"
       height="11.250461"
       x="-71.795593"
       y="241.21414"
       ry="0" />
    <rect
       style="fill:#000000;stroke-width:0.177012"
       id="rect6210-6"
       width="12.578904"
       height="15.556349"
       x="144.13814"
       y="244.463"
       transform="scale(-1,1)" />
    <rect
       style="fill:#000000;stroke-width:0.177012"
       id="rect6210-2-7"
       width="12.578904"
       height="15.556349"
       x="152.10381"
       y="246.32816"
       transform="scale(-1,1)" />
    <rect
       style="fill:#000000;stroke-width:0.206495"
       id="rect6212-7"
       width="11.768624"
       height="11.541807"
       x="162.06641"
       y="244.463"
       transform="scale(-1,1)" />
    <rect
       style="fill:#000000;stroke-width:0.206495"
       id="rect6214-2"
       width="9.0939369"
       height="13.549078"
       x="188.30513"
       y="245.73799"
       transform="scale(-1,1)" />
    <rect
       style="fill:#000000;stroke-width:0.206495"
       id="rect6224-9"
       width="6.9541869"
       height="9.0327187"
       x="157.2659"
       y="242.77058"
       ry="0"
       transform="scale(-1,1)" />
    <rect
       style="fill:#000000;stroke-width:0.206495"
       id="rect6224-6-9"
       width="6.9541869"
       height="9.0327187"
       x="138.27283"
       y="241.78351"
       ry="0"
       transform="scale(-1,1)" />
    <rect
       style="fill:#000000;stroke-width:0.206495"
       id="rect6224-6-8-6"
       width="6.9541869"
       height="9.0327187"
       x="135.62502"
       y="243.55771"
       ry="0"
       transform="scale(-1,1)" />
    <rect
       style="fill:#000000;stroke-width:0.206495"
       id="rect6224-6-8-9-4"
       width="6.9541869"
       height="9.0327187"
       x="131.08592"
       y="245.33191"
       ry="0"
       transform="scale(-1,1)" />
    <rect
       style="fill:#000000;stroke-width:0.206495"
       id="rect6224-5-2"
       width="6.9541869"
       height="9.0327187"
       x="172.50516"
       y="245.77544"
       ry="0"
       transform="scale(-1,1)" />
    <rect
       style="fill:#000000;stroke-width:0.206495"
       id="rect6224-5-8-8"
       width="6.9541869"
       height="9.0327187"
       x="178.74643"
       y="244.79964"
       ry="0"
       transform="scale(-1,1)" />
    <rect
       style="fill:#000000;stroke-width:0.182655"
       id="rect6224-5-8-0-8"
       width="5.441155"
       height="9.0327187"
       x="180.73813"
       y="249.85609"
       ry="0"
       transform="scale(-1,1)" />
    <rect
       style="fill:#000000;stroke-width:0.203848"
       id="rect6224-5-8-0-6-7"
       width="5.441155"
       height="11.250461"
       x="184.36047"
       y="248.62631"
       ry="0"
       transform="scale(-1,1)" />
    <rect
       style="fill:#000000;stroke-width:0.203848"
       id="rect6224-5-8-0-6-5-5"
       width="5.441155"
       height="11.250461"
       x="185.70137"
       y="246.93474"
       ry="0"
       transform="scale(-1,1)" />
    <rect
       style="fill:#000000;stroke-width:0.203848"
       id="rect6224-5-8-0-6-5-6-3"
       width="5.441155"
       height="11.250461"
       x="196.68759"
       y="249.63432"
       ry="0"
       transform="scale(-1,1)" />
    <rect
       style="fill:#000000;stroke-width:0.196672"
       id="rect6224-5-8-0-6-5-6-9-9"
       width="5.0647917"
       height="11.250461"
       x="204.5475"
       y="255.87355"
       ry="0"
       transform="scale(-1,1)" />
    <rect
       style="fill:#000000;stroke-width:0.203848"
       id="rect6224-5-8-0-6-5-6-9-6-6"
       width="5.441155"
       height="11.250461"
       x="201.52031"
       y="251.49722"
       ry="0"
       transform="scale(-1,1)" />
    <rect
       style="fill:#000000;stroke-width:0.224413"
       id="rect6224-5-8-0-6-5-6-9-7-5-1"
       width="6.5943809"
       height="11.250461"
       x="197.30554"
       y="247.23917"
       ry="0"
       transform="scale(-1,1)" />
    <rect
       style="fill:#000000;stroke-width:0.191047"
       id="rect6224-5-8-0-6-5-6-9-7-5-6-04"
       width="4.7792039"
       height="11.250461"
       x="203.60216"
       y="251.85207"
       ry="0"
       transform="scale(-1,1)" />
    <rect
       style="fill:#000000;stroke-width:0.171445"
       id="rect6210-9"
       width="11.800102"
       height="15.556349"
       x="-188.85851"
       y="243.45102" />
    <rect
       style="fill:#000000;stroke-width:0.2"
       id="rect6224-6-4"
       width="6.5236301"
       height="9.0327187"
       x="-194.36067"
       y="240.77153"
       ry="0" />
    <rect
       style="fill:#000000;stroke-width:0.2"
       id="rect6224-6-8-4"
       width="6.5236301"
       height="9.0327187"
       x="-196.84456"
       y="242.54573"
       ry="0" />
    <rect
       style="fill:#000000;stroke-width:0.2"
       id="rect6224-6-8-9-0"
       width="6.5236301"
       height="9.0327187"
       x="-201.10262"
       y="244.31993"
       ry="0" />
    <rect
       style="fill:#000000;stroke-width:0.177012"
       id="rect6210-6-9"
       width="12.578904"
       height="15.556349"
       x="191.83226"
       y="245.66153"
       transform="scale(-1,1)" />
    <rect
       style="fill:#000000;stroke-width:0.177012"
       id="rect6210-2-7-6"
       width="12.578904"
       height="15.556349"
       x="199.79793"
       y="247.52669"
       transform="scale(-1,1)" />
    <rect
       style="fill:#000000;stroke-width:0.206495"
       id="rect6212-7-3"
       width="11.768624"
       height="11.541807"
       x="209.76053"
       y="245.66153"
       transform="scale(-1,1)" />
    <rect
       style="fill:#000000;stroke-width:0.206495"
       id="rect6214-2-6"
       width="9.0939369"
       height="13.549078"
       x="235.99925"
       y="246.93652"
       transform="scale(-1,1)" />
    <rect
       style="fill:#000000;stroke-width:0.206495"
       id="rect6224-9-3"
       width="6.9541869"
       height="9.0327187"
       x="204.96002"
       y="243.96912"
       ry="0"
       transform="scale(-1,1)" />
    <rect
       style="fill:#000000;stroke-width:0.206495"
       id="rect6224-6-9-0"
       width="6.9541869"
       height="9.0327187"
       x="185.96695"
       y="242.98204"
       ry="0"
       transform="scale(-1,1)" />
    <rect
       style="fill:#000000;stroke-width:0.206495"
       id="rect6224-6-8-6-2"
       width="6.9541869"
       height="9.0327187"
       x="183.31914"
       y="244.75624"
       ry="0"
       transform="scale(-1,1)" />
    <rect
       style="fill:#000000;stroke-width:0.206495"
       id="rect6224-6-8-9-4-5"
       width="6.9541869"
       height="9.0327187"
       x="178.78004"
       y="246.53044"
       ry="0"
       transform="scale(-1,1)" />
    <rect
       style="fill:#000000;stroke-width:0.206495"
       id="rect6224-5-2-6"
       width="6.9541869"
       height="9.0327187"
       x="220.19928"
       y="246.97397"
       ry="0"
       transform="scale(-1,1)" />
    <rect
       style="fill:#000000;stroke-width:0.206495"
       id="rect6224-5-8-8-1"
       width="6.9541869"
       height="9.0327187"
       x="226.44055"
       y="245.99817"
       ry="0"
       transform="scale(-1,1)" />
    <rect
       style="fill:#000000;stroke-width:0.182655"
       id="rect6224-5-8-0-8-7"
       width="5.441155"
       height="9.0327187"
       x="228.43225"
       y="251.05463"
       ry="0"
       transform="scale(-1,1)" />
    <rect
       style="fill:#000000;stroke-width:0.203848"
       id="rect6224-5-8-0-6-7-4"
       width="5.441155"
       height="11.250461"
       x="232.0546"
       y="249.82484"
       ry="0"
       transform="scale(-1,1)" />
    <rect
       style="fill:#000000;stroke-width:0.203848"
       id="rect6224-5-8-0-6-5-5-7"
       width="5.441155"
       height="11.250461"
       x="233.39549"
       y="248.13327"
       ry="0"
       transform="scale(-1,1)" />
    <rect
       style="fill:#000000;stroke-width:0.203848"
       id="rect6224-5-8-0-6-5-6-3-4"
       width="5.441155"
       height="11.250461"
       x="244.38171"
       y="250.83286"
       ry="0"
       transform="scale(-1,1)" />
    <rect
       style="fill:#000000;stroke-width:0.196672"
       id="rect6224-5-8-0-6-5-6-9-9-2"
       width="5.0647917"
       height="11.250461"
       x="252.24162"
       y="257.07208"
       ry="0"
       transform="scale(-1,1)" />
    <rect
       style="fill:#000000;stroke-width:0.203848"
       id="rect6224-5-8-0-6-5-6-9-6-6-7"
       width="5.441155"
       height="11.250461"
       x="249.21443"
       y="252.69576"
       ry="0"
       transform="scale(-1,1)" />
    <rect
       style="fill:#000000;stroke-width:0.224413"
       id="rect6224-5-8-0-6-5-6-9-7-5-1-9"
       width="6.5943809"
       height="11.250461"
       x="244.99966"
       y="248.4377"
       ry="0"
       transform="scale(-1,1)" />
    <rect
       style="fill:#000000;stroke-width:0.191047"
       id="rect6224-5-8-0-6-5-6-9-7-5-6-04-7"
       width="4.7792039"
       height="11.250461"
       x="251.29628"
       y="253.0506"
       ry="0"
       transform="scale(-1,1)" />
    <rect
       style="fill:#000000;stroke-width:0.188853"
       id="rect6224-6-3"
       width="5.8166895"
       height="9.0327187"
       x="246.18739"
       y="242.77879"
       ry="0"
       transform="scale(-1,1)" />
    <rect
       style="fill:#000000;stroke-width:0.188853"
       id="rect6224-6-8-91"
       width="5.8166895"
       height="9.0327187"
       x="243.97267"
       y="244.55299"
       ry="0"
       transform="scale(-1,1)" />
    <rect
       style="fill:#000000;stroke-width:0.188853"
       id="rect6224-6-8-9-1"
       width="5.8166895"
       height="9.0327187"
       x="240.17604"
       y="246.32719"
       ry="0"
       transform="scale(-1,1)" />
    <rect
       style="fill:#000000;stroke-width:0.167146"
       id="rect6210-6-0"
       width="11.215777"
       height="15.556349"
       x="-248.44182"
       y="247.66879" />
    <rect
       style="fill:#000000;stroke-width:0.167146"
       id="rect6210-2-7-2"
       width="11.215777"
       height="15.556349"
       x="-241.33934"
       y="249.53395" />
    <rect
       style="fill:#000000;stroke-width:0.194986"
       id="rect6212-7-5"
       width="10.493304"
       height="11.541807"
       x="-232.45638"
       y="247.66879" />
    <rect
       style="fill:#000000;stroke-width:0.194986"
       id="rect6214-2-61"
       width="8.1084623"
       height="13.549078"
       x="-209.06102"
       y="248.94379" />
    <rect
       style="fill:#000000;stroke-width:0.194986"
       id="rect6224-9-8"
       width="6.2005887"
       height="9.0327187"
       x="-236.73665"
       y="245.97638"
       ry="0" />
    <rect
       style="fill:#000000;stroke-width:0.194986"
       id="rect6224-6-9-2"
       width="6.2005887"
       height="9.0327187"
       x="-253.67152"
       y="244.9893"
       ry="0" />
    <rect
       style="fill:#000000;stroke-width:0.292199"
       id="rect6224-6-8-6-1"
       width="7.9569507"
       height="15.807258"
       x="-257.78873"
       y="246.7635"
       ry="0" />
    <rect
       style="fill:#000000;stroke-width:0.194986"
       id="rect6224-5-2-0"
       width="6.2005887"
       height="9.0327187"
       x="-223.14882"
       y="248.98123"
       ry="0" />
    <rect
       style="fill:#000000;stroke-width:0.194986"
       id="rect6224-5-8-8-2"
       width="6.2005887"
       height="9.0327187"
       x="-217.58388"
       y="248.00543"
       ry="0" />
    <rect
       style="fill:#000000;stroke-width:0.172474"
       id="rect6224-5-8-0-8-3"
       width="4.8515182"
       height="9.0327187"
       x="-215.80803"
       y="253.06189"
       ry="0" />
    <rect
       style="fill:#000000;stroke-width:0.192486"
       id="rect6224-5-8-0-6-7-1"
       width="4.8515182"
       height="11.250461"
       x="-212.5782"
       y="251.83211"
       ry="0" />
    <rect
       style="fill:#000000;stroke-width:0.192486"
       id="rect6224-5-8-0-6-5-5-2"
       width="4.8515182"
       height="11.250461"
       x="-211.38261"
       y="250.14053"
       ry="0" />
    <rect
       style="fill:#000000;stroke-width:0.192486"
       id="rect6224-5-8-0-6-5-6-3-5"
       width="4.8515182"
       height="11.250461"
       x="-201.58693"
       y="252.84012"
       ry="0" />
    <rect
       style="fill:#000000;stroke-width:0.18571"
       id="rect6224-5-8-0-6-5-6-9-9-3"
       width="4.5159397"
       height="11.250461"
       x="-194.57878"
       y="259.07935"
       ry="0" />
    <rect
       style="fill:#000000;stroke-width:0.192486"
       id="rect6224-5-8-0-6-5-6-9-6-6-9"
       width="4.8515182"
       height="11.250461"
       x="-197.27792"
       y="254.70302"
       ry="0" />
    <rect
       style="fill:#000000;stroke-width:0.211905"
       id="rect6224-5-8-0-6-5-6-9-7-5-1-7"
       width="5.8797736"
       height="11.250461"
       x="-201.03596"
       y="250.44496"
       ry="0" />
    <rect
       style="fill:#000000;stroke-width:0.180399"
       id="rect6224-5-8-0-6-5-6-9-7-5-6-04-3"
       width="4.2613001"
       height="11.250461"
       x="-195.42168"
       y="255.05786"
       ry="0" />
    <rect
       style="fill:#000000;stroke-width:0.185038"
       id="rect6224-5-8-0-6-5-6-9-7-5-6-6"
       width="4.4833074"
       height="11.250461"
       x="-15.936964"
       y="247.41635"
       ry="0" />
    <rect
       style="fill:#000000;stroke-width:0.185038"
       id="rect6224-5-8-0-6-5-6-9-7-5-6-7"
       width="4.4833074"
       height="11.250461"
       x="-22.96241"
       y="248.16907"
       ry="0" />
    <rect
       style="fill:#000000;stroke-width:0.185038"
       id="rect6224-5-8-0-6-5-6-9-7-5-6-0"
       width="4.4833074"
       height="11.250461"
       x="-12.17333"
       y="243.90363"
       ry="0" />
    <rect
       style="fill:#000000;stroke-width:0.185038"
       id="rect6224-5-8-0-6-5-6-9-7-5-6-63"
       width="4.4833074"
       height="11.250461"
       x="-8.4096966"
       y="244.65634"
       ry="0" />
    <rect
       style="fill:#000000;stroke-width:0.185038"
       id="rect6224-5-8-0-6-5-6-9-7-5-6-1"
       width="4.4833074"
       height="11.250461"
       x="-3.8933382"
       y="244.15453"
       ry="0" />
    <rect
       style="fill:#000000;stroke-width:0.185038"
       id="rect6224-5-8-0-6-5-6-9-7-5-6-79"
       width="4.4833074"
       height="11.250461"
       x="0.12120443"
       y="243.65271"
       ry="0" />
    <rect
       style="fill:#000000;stroke-width:0.269375"
       id="rect6224-5-8-0-6-5-6-9-7-5-6-9"
       width="9.5014849"
       height="11.250461"
       x="3.6339278"
       y="245.40907"
       ry="0" />
    <rect
       style="fill:#000000;stroke-width:0.226903"
       id="rect6224-5-8-0-6-5-6-9-7-5-6-60"
       width="6.741487"
       height="11.250461"
       x="12.666648"
       y="242.64908"
       ry="0" />
    <rect
       style="fill:#000000;stroke-width:0.226903"
       id="rect6224-5-8-0-6-5-6-9-7-5-6-60-7"
       width="6.741487"
       height="11.250461"
       x="18.312096"
       y="244.15453"
       ry="0" />
    <rect
       style="fill:#000000;stroke-width:0.226903"
       id="rect6224-5-8-0-6-5-6-9-7-5-6-60-4"
       width="6.741487"
       height="11.250461"
       x="22.577547"
       y="241.14362"
       ry="0" />
    <rect
       style="fill:#000000;stroke-width:0.195119"
       id="rect6224-5-8-0-6-5-6-9-7-5-6-60-42"
       width="4.9851251"
       height="11.250461"
       x="28.59936"
       y="242.89998"
       ry="0" />
    <rect
       style="fill:#000000;stroke-width:0.195119"
       id="rect6224-5-8-0-6-5-6-9-7-5-6-60-42-5"
       width="4.9851251"
       height="11.250461"
       x="32.739357"
       y="243.40179"
       ry="0" />
    <rect
       style="fill:#000000;stroke-width:0.195119"
       id="rect6224-5-8-0-6-5-6-9-7-5-6-60-42-9"
       width="4.9851251"
       height="11.250461"
       x="35.499352"
       y="244.65634"
       ry="0" />
    <rect
       style="fill:#000000;stroke-width:0.195119"
       id="rect6224-5-8-0-6-5-6-9-7-5-6-60-42-6"
       width="4.9851251"
       height="11.250461"
       x="37.255714"
       y="-252.89589"
       ry="0"
       transform="scale(1,-1)" />
    <rect
       style="fill:#000000;stroke-width:0.195119"
       id="rect6224-5-8-0-6-5-6-9-7-5-6-60-42-1"
       width="4.9851251"
       height="11.250461"
       x="39.262989"
       y="241.64545"
       ry="0" />
    <rect
       style="fill:#000000;stroke-width:0.195119"
       id="rect6224-5-8-0-6-5-6-9-7-5-6-60-42-98"
       width="4.9851251"
       height="11.250461"
       x="43.528435"
       y="240.3909"
       ry="0" />
    <rect
       style="fill:#000000;stroke-width:0.195119"
       id="rect6224-5-8-0-6-5-6-9-7-5-6-60-42-7"
       width="4.9851251"
       height="11.250461"
       x="47.542976"
       y="242.64908"
       ry="0" />
    <rect
       style="fill:#000000;stroke-width:0.195119"
       id="rect6224-5-8-0-6-5-6-9-7-5-6-60-42-3"
       width="4.9851251"
       height="11.250461"
       x="60.841148"
       y="241.89635"
       ry="0" />
    <rect
       style="fill:#000000;stroke-width:0.195119"
       id="rect6224-5-8-0-6-5-6-9-7-5-6-60-42-96"
       width="4.9851251"
       height="11.250461"
       x="77.652039"
       y="240.6418"
       ry="0" />
    <rect
       style="fill:#000000;stroke-width:0.195119"
       id="rect6224-5-8-0-6-5-6-9-7-5-6-60-42-58"
       width="4.9851251"
       height="11.250461"
       x="81.917496"
       y="239.88908"
       ry="0" />
    <rect
       style="fill:#000000;stroke-width:0.195119"
       id="rect6224-5-8-0-6-5-6-9-7-5-6-60-42-2"
       width="4.9851251"
       height="11.250461"
       x="85.430214"
       y="238.13272"
       ry="0" />
    <rect
       style="fill:#000000;stroke-width:0.195119"
       id="rect6224-5-8-0-6-5-6-9-7-5-6-60-42-34"
       width="4.9851251"
       height="11.250461"
       x="89.193848"
       y="239.63817"
       ry="0" />
    <rect
       style="fill:#000000;stroke-width:0.195119"
       id="rect6224-5-8-0-6-5-6-9-7-5-6-60-42-18"
       width="4.9851251"
       height="11.250461"
       x="93.710213"
       y="241.64545"
       ry="0" />
    <rect
       style="fill:#000000;stroke-width:0.195119"
       id="rect6224-5-8-0-6-5-6-9-7-5-6-60-42-0"
       width="4.9851251"
       height="11.250461"
       x="110.01929"
       y="242.39818"
       ry="0" />
    <rect
       style="fill:#000000;stroke-width:0.195119"
       id="rect6224-5-8-0-6-5-6-9-7-5-6-60-42-67"
       width="4.9851251"
       height="11.250461"
       x="118.55019"
       y="242.64906"
       ry="0" />
    <ellipse
       style="fill:#000000;stroke-width:0.189426"
       id="path6883"
       cx="-23.557966"
       cy="247.90388"
       rx="5.4112902"
       ry="3.282258" />
    <rect
       style="fill:#000000;stroke-width:0.233663"
       id="rect7434"
       width="558.93353"
       height="47.170864"
       x="-383.28406"
       y="307.4888" />
    <rect
       style="fill:#000000;stroke-width:0.2"
       id="rect1041"
       width="90.82901"
       height="44.159958"
       x="-141.40782"
       y="247.77249" />
    <rect
       style="fill:#000000;stroke-width:0.2"
       id="rect1043"
       width="15.556349"
       height="7.5272655"
       x="-277.90225"
       y="245.2634" />
    <path
       sodipodi:type="star"
       style="fill:#000000;stroke-width:0.2"
       id="path1097"
       inkscape:flatsided="true"
       sodipodi:sides="3"
       sodipodi:cx="-422.94934"
       sodipodi:cy="-451.39886"
       sodipodi:r1="95.850403"
       sodipodi:r2="47.925201"
       sodipodi:arg1="0.47249694"
       sodipodi:arg2="1.5196945"
       inkscape:rounded="0"
       inkscape:randomized="0"
       d="m -337.60082,-407.77629 -165.80104,8.48012 75.55652,-147.82797 z"
       transform="matrix(0.11325204,0,0,0.03035553,-223.10827,257.62068)"
       inkscape:transform-center-x="-0.27724478"
       inkscape:transform-center-y="-0.6620911" />
    <g
       id="g1160"
       transform="matrix(0.88135594,0,0,0.59999995,1.6284569,194.55473)">
      <ellipse
         style="fill:#000000;stroke-width:0.2"
         id="path1151"
         cx="-385.04031"
         cy="100.7399"
         rx="7.2763567"
         ry="5.018177" />
      <ellipse
         style="fill:#000000;stroke-width:0.2"
         id="path1153"
         cx="-376.25851"
         cy="97.979904"
         rx="9.5345364"
         ry="6.774539" />
      <ellipse
         style="fill:#000000;stroke-width:0.2"
         id="path1155"
         cx="-373.4985"
         cy="102.49626"
         rx="10.789081"
         ry="6.2727213" />
    </g>
  </g>
</svg>
